<?xml version="1.0" encoding="UTF-8" standalone="no"?>
<svg
   xmlns:dc="http://purl.org/dc/elements/1.1/"
   xmlns:cc="http://creativecommons.org/ns#"
   xmlns:rdf="http://www.w3.org/1999/02/22-rdf-syntax-ns#"
   xmlns:svg="http://www.w3.org/2000/svg"
   xmlns="http://www.w3.org/2000/svg"
   xmlns:sodipodi="http://sodipodi.sourceforge.net/DTD/sodipodi-0.dtd"
   xmlns:inkscape="http://www.inkscape.org/namespaces/inkscape"
   version="1.1"
   viewBox="46 229 120.246 79.262"
   fill="#fff"
   id="svg2"
   inkscape:version="0.48.2 r9819"
   width="100%"
   height="100%"
   sodipodi:docname="logo.svg">
  <metadata
     id="metadata26">
    <rdf:RDF>
      <cc:Work
         rdf:about="">
        <dc:format>image/svg+xml</dc:format>
        <dc:type
           rdf:resource="http://purl.org/dc/dcmitype/StillImage" />
      </cc:Work>
    </rdf:RDF>
  </metadata>
  <defs
     id="defs24" />
  <sodipodi:namedview
     pagecolor="#ffffff"
     bordercolor="#666666"
     borderopacity="1"
     objecttolerance="10"
     gridtolerance="10"
     guidetolerance="10"
     inkscape:pageopacity="0"
     inkscape:pageshadow="2"
     inkscape:window-width="1182"
     inkscape:window-height="822"
     id="namedview22"
     showgrid="false"
     inkscape:zoom="2.627946"
     inkscape:cx="60.080878"
     inkscape:cy="39.63506"
     inkscape:window-x="0"
     inkscape:window-y="0"
     inkscape:window-maximized="0"
     inkscape:current-layer="svg2" />
  <path
     d="m162.963,254.027 c0.896,11.594 -47.829,19.032 -47.829,19.032 l-3.42,-9.166 c0,0 43.733,-1.407 44.418,-10.217 0.682,-8.815 -30.064,-13.397 -55.692,-8.464 -25.623,4.938 -54.661,11.985 -52.272,32.785 2.394,20.794 42.025,20.794 57.401,21.5 15.37,0.702 57.015,-1.377 58.422,-15.511 1.327,-13.357 -13.348,-19.728 -13.348,-19.728 l1.764,-0.687 c0,0 15.821,8.925 13.632,20.414 -3.756,19.738 -46.121,20.094 -59.789,19.037 -13.667,-1.062 -57.741,-1.412 -60.13,-24.325 -2.394,-22.908 31.773,-34.542 52.612,-38.068 20.839,-3.521 62.864,-4.227 64.231,13.398 z"
     id="path4"
     style="fill:#000000" />
  <path
     d="m145.454,260.047 -2.083,0.245 c0,0 -14.635,-5.679 -22.433,-6.265 10.739,0.35 24.516,6.02 24.516,6.02 z"
     id="path6"
     style="fill:#000000" />
  <path
     d="m151.689,264.955 c0,0 2.579,6.426 1.367,12.686 -2.083,10.748 -9.911,19.037 -9.911,19.037 l10.933,-2.469 c0,0 4.708,-4.578 6.15,-13.392 1.447,-8.82 0,-10.222 0,-10.222 l-6.15,-5.289 -2.389,-0.351 z"
     id="path8"
     style="fill:#000000" />
  <path
     d="m137.291,257.542 c0,0 2.098,10.542 0.881,18.892 -2.083,14.329 -16.768,23.224 -16.768,23.224 l12.906,-1.142 c0,0 9.511,-7.653 11.364,-19.347 1.878,-11.84 -0.11,-17.985 -0.11,-17.985 l-5.955,-2.845 -2.318,-0.797 z"
     id="path10"
     style="fill:#000000" />
  <path
     d="m119.085,255.604 c0,0 2.099,7.287 0.295,18.01 -2.394,14.279 -15.3,22.057 -15.3,22.057 l6.621,2.96 c0,0 0.816,0.776 5.879,1.507 -2.058,-1.142 -3.22,-3.275 -2.689,-3.681 4.137,-3.19 11.049,-9.881 12.992,-20.108 2.243,-11.77 -0.075,-18.806 -0.075,-18.806 l-7.723,-1.939 z"
     id="path12"
     style="fill:#000000" />
  <path
     d="m88.094,246.344 c0,0 9.747,16.593 7.948,27.315 -2.398,14.274 -21.185,30.731 -21.185,30.731 l13.236,3.872 c0,0 17.028,-16.302 19.863,-31.187 2.239,-11.77 -7.502,-33.806 -7.502,-33.806 l-12.36,3.075 z"
     id="path14"
     style="fill:#000000" />
  <path
     d="m66.839,262.486 c-2.905,0.14 -2.735,5.639 -2.735,5.639 0,0 -0.371,6.601 2.048,6.696 2.419,0.1 0.361,-4.021 0.341,-6.346 -0.02,-2.318 3.246,-6.129 0.346,-5.989 z"
     id="path16"
     style="fill:#000000" />
  <path
     d="m59.782,262.836 c-2.9,0.14 -2.729,5.639 -2.729,5.639 0,0 -0.371,6.601 2.048,6.701 2.419,0.095 0.361,-4.021 0.341,-6.346 -0.021,-2.323 3.245,-6.134 0.34,-5.994 z"
     id="path18"
     style="fill:#000000" />
  <path
     d="m77.441,245.553 -5.609,2.128 c0,0 -0.806,-14.409 36.751,-18.04 27.29,-2.634 33.155,3.621 32.939,4.908 -0.22,1.282 -2.003,2.84 -2.003,2.84 0,0 1.447,-1.738 0,-3.195 -1.447,-1.458 -8.049,-4.322 -30.44,-2.128 -21.716,2.123 -29.594,8.93 -30.441,10.647 -0.841,1.713 -1.197,2.84 -1.197,2.84 z"
     id="path20"
     style="fill:#000000" />
</svg>
